<svg width="25" height="32" viewBox="0 0 25 32" fill="none" xmlns="http://www.w3.org/2000/svg">
<g clip-path="url(#clip0_8_707)">
<path fill-rule="evenodd" clip-rule="evenodd" d="M20 7H5C4.17157 7 3.5 7.67157 3.5 8.5V23.5C3.5 24.3284 4.17157 25 5 25H20C20.8284 25 21.5 24.3284 21.5 23.5V8.5C21.5 7.67157 20.8284 7 20 7ZM20 23.5H5V8.5H20V23.5ZM17 16C17 16.4142 16.6642 16.75 16.25 16.75H13.25V19.75C13.25 20.1642 12.9142 20.5 12.5 20.5C12.0858 20.5 11.75 20.1642 11.75 19.75V16.75H8.75C8.33579 16.75 8 16.4142 8 16C8 15.5858 8.33579 15.25 8.75 15.25H11.75V12.25C11.75 11.8358 12.0858 11.5 12.5 11.5C12.9142 11.5 13.25 11.8358 13.25 12.25V15.25H16.25C16.6642 15.25 17 15.5858 17 16Z" fill="#FE8C00"/>
</g>
<defs>
<clipPath id="clip0_8_707">
<rect width="24" height="24" fill="white" transform="translate(0.5 4)"/>
</clipPath>
</defs>
</svg>
