<svg width="25" height="24" viewBox="0 0 25 24" fill="none" xmlns="http://www.w3.org/2000/svg">
<g clip-path="url(#clip0_8_524)">
<path fill-rule="evenodd" clip-rule="evenodd" d="M21.5 10.8328V19.5C21.5 20.3284 20.8284 21 20 21H16.25C15.4216 21 14.75 20.3284 14.75 19.5V15.75C14.75 15.3358 14.4142 15 14 15H11C10.5858 15 10.25 15.3358 10.25 15.75V19.5C10.25 20.3284 9.57843 21 8.75 21H5C4.17157 21 3.5 20.3284 3.5 19.5V10.8328C3.49994 10.4131 3.67573 10.0125 3.98469 9.72844L11.4847 2.65219L11.495 2.64188C12.0672 2.1215 12.9412 2.1215 13.5134 2.64188C13.5166 2.64554 13.5201 2.64899 13.5238 2.65219L21.0238 9.72844C21.3296 10.014 21.5022 10.4144 21.5 10.8328Z" fill="#FE8C00"/>
</g>
<defs>
<clipPath id="clip0_8_524">
<rect width="24" height="24" fill="white" transform="translate(0.5)"/>
</clipPath>
</defs>
</svg>
