<svg width="25" height="32" viewBox="0 0 25 32" fill="none" xmlns="http://www.w3.org/2000/svg">
<g clip-path="url(#clip0_8_700)">
<path fill-rule="evenodd" clip-rule="evenodd" d="M21.5 14.8328V23.5C21.5 24.3284 20.8284 25 20 25H16.25C15.4216 25 14.75 24.3284 14.75 23.5V19.75C14.75 19.3358 14.4142 19 14 19H11C10.5858 19 10.25 19.3358 10.25 19.75V23.5C10.25 24.3284 9.57843 25 8.75 25H5C4.17157 25 3.5 24.3284 3.5 23.5V14.8328C3.49994 14.4131 3.67573 14.0125 3.98469 13.7284L11.4847 6.65219L11.495 6.64188C12.0672 6.1215 12.9412 6.1215 13.5134 6.64188C13.5166 6.64554 13.5201 6.64899 13.5238 6.65219L21.0238 13.7284C21.3296 14.014 21.5022 14.4144 21.5 14.8328Z" fill="#121A0F"/>
</g>
<defs>
<clipPath id="clip0_8_700">
<rect width="24" height="24" fill="white" transform="translate(0.5 4)"/>
</clipPath>
</defs>
</svg>
