<svg width="24" height="24" viewBox="0 0 24 24" fill="none" xmlns="http://www.w3.org/2000/svg">
<path fill-rule="evenodd" clip-rule="evenodd" d="M21.6488 19.8751C20.2209 17.4067 18.0206 15.6367 15.4528 14.7976C18.0636 13.2434 19.3142 10.1365 18.5082 7.20701C17.7022 4.27752 15.0383 2.24756 12 2.24756C8.96168 2.24756 6.2978 4.27752 5.49183 7.20701C4.68586 10.1365 5.93646 13.2434 8.5472 14.7976C5.97939 15.6357 3.77907 17.4057 2.35126 19.8751C2.20871 20.1075 2.20354 20.399 2.33774 20.6364C2.47194 20.8737 2.72439 21.0195 2.99703 21.0172C3.26968 21.0148 3.51958 20.8647 3.6497 20.6251C5.41595 17.5726 8.53782 15.7501 12 15.7501C15.4622 15.7501 18.5841 17.5726 20.3503 20.6251C20.4804 20.8647 20.7303 21.0148 21.003 21.0172C21.2756 21.0195 21.5281 20.8737 21.6623 20.6364C21.7965 20.399 21.7913 20.1075 21.6488 19.8751ZM6.75001 9.00011C6.75001 6.10061 9.10051 3.75011 12 3.75011C14.8995 3.75011 17.25 6.10061 17.25 9.00011C17.25 11.8996 14.8995 14.2501 12 14.2501C9.1018 14.247 6.75311 11.8983 6.75001 9.00011Z" fill="#FE8C00"/>
</svg>
