<svg width="25" height="24" viewBox="0 0 25 24" fill="none" xmlns="http://www.w3.org/2000/svg">
<path fill-rule="evenodd" clip-rule="evenodd" d="M22.1486 19.8751C20.7208 17.4067 18.5205 15.6367 15.9527 14.7976C18.5634 13.2434 19.814 10.1365 19.0081 7.20701C18.2021 4.27752 15.5382 2.24756 12.4999 2.24756C9.46156 2.24756 6.79768 4.27752 5.99171 7.20701C5.18574 10.1365 6.43634 13.2434 9.04708 14.7976C6.47926 15.6357 4.27895 17.4057 2.85114 19.8751C2.70859 20.1075 2.70341 20.399 2.83762 20.6364C2.97182 20.8737 3.22426 21.0195 3.49691 21.0172C3.76956 21.0148 4.01946 20.8647 4.14958 20.6251C5.91583 17.5726 9.0377 15.7501 12.4999 15.7501C15.9621 15.7501 19.084 17.5726 20.8502 20.6251C20.9803 20.8647 21.2302 21.0148 21.5029 21.0172C21.7755 21.0195 22.028 20.8737 22.1622 20.6364C22.2964 20.399 22.2912 20.1075 22.1486 19.8751ZM7.24989 9.00011C7.24989 6.10061 9.60039 3.75011 12.4999 3.75011C15.3994 3.75011 17.7499 6.10061 17.7499 9.00011C17.7499 11.8996 15.3994 14.2501 12.4999 14.2501C9.60168 14.247 7.25299 11.8983 7.24989 9.00011Z" fill="#121A0F"/>
</svg>
